HIERARCHY
ROOT Hips
{
	OFFSET 0.000000 0.000000 0.000000
	CHANNELS 6 Xposition Yposition Zposition Zrotation Yrotation Xrotation 
	JOINT LowerBack
	{
		OFFSET 0.000000 0.000000 0.000000
		CHANNELS 3 Zrotation Yrotation Xrotation
		JOINT Spine
		{
			OFFSET 0.028270 2.035590 -0.193380
			CHANNELS 3 Zrotation Yrotation Xrotation
			JOINT Spine1
			{
				OFFSET 0.056720 2.048850 -0.042750
				CHANNELS 3 Zrotation Yrotation Xrotation
				JOINT Neck
				{
					OFFSET 0.000000 0.000000 0.000000
					CHANNELS 3 Zrotation Yrotation Xrotation
					JOINT Neck1
					{
						OFFSET -0.054170 1.746240 0.172020
						CHANNELS 3 Zrotation Yrotation Xrotation
						JOINT Head
						{
							OFFSET 0.104070 1.761360 -0.123970
							CHANNELS 3 Zrotation Yrotation Xrotation
							End Site
							{
								OFFSET 0.000000 0.000000 0.000000
							}
						}
					}
				}
				JOINT LeftShoulder
				{
					OFFSET 0.000000 0.000000 0.000000
					CHANNELS 3 Zrotation Yrotation Xrotation
					JOINT LeftArm
					{
						OFFSET 3.362410 1.200890 -0.311210
						CHANNELS 3 Zrotation Yrotation Xrotation
						JOINT LeftForeArm
						{
							OFFSET 4.983000 -0.000000 -0.000000
							CHANNELS 3 Zrotation Yrotation Xrotation
							JOINT LeftHand
							{
								OFFSET 3.483560 -0.000000 -0.000000
								CHANNELS 3 Zrotation Yrotation Xrotation
								JOINT LeftFingerBase
								{
									OFFSET 0.000000 0.000000 0.000000
									CHANNELS 3 Zrotation Yrotation Xrotation
									JOINT LeftHandIndex1
									{
										OFFSET 0.715260 -0.000000 -0.000000
										CHANNELS 3 Zrotation Yrotation Xrotation
										End Site
										{
											OFFSET 0.000000 0.000000 0.000000
										}
									}
								}
								JOINT LThumb
								{
									OFFSET 0.000000 0.000000 0.000000
									CHANNELS 3 Zrotation Yrotation Xrotation
									End Site
									{
										OFFSET 0.000000 0.000000 0.000000
									}
								}
							}
						}
					}
				}
				JOINT RightShoulder
				{
					OFFSET 0.000000 0.000000 0.000000
					CHANNELS 3 Zrotation Yrotation Xrotation
					JOINT RightArm
					{
						OFFSET -3.136600 1.374050 -0.404650
						CHANNELS 3 Zrotation Yrotation Xrotation
						JOINT RightForeArm
						{
							OFFSET -5.241900 -0.000000 -0.000000
							CHANNELS 3 Zrotation Yrotation Xrotation
							JOINT RightHand
							{
								OFFSET -3.444170 -0.000000 -0.000000
								CHANNELS 3 Zrotation Yrotation Xrotation
								JOINT RightFingerBase
								{
									OFFSET 0.000000 0.000000 0.000000
									CHANNELS 3 Zrotation Yrotation Xrotation
									JOINT RightHandIndex1
									{
										OFFSET -0.622530 -0.000000 -0.000000
										CHANNELS 3 Zrotation Yrotation Xrotation
										End Site
										{
											OFFSET 0.000000 0.000000 0.000000
										}
									}
								}
								JOINT RThumb
								{
									OFFSET 0.000000 0.000000 0.000000
									CHANNELS 3 Zrotation Yrotation Xrotation
									End Site
									{
										OFFSET 0.000000 0.000000 0.000000
									}
								}
							}
						}
					}
				}
			}
		}
	}
}
}
MOTION
Frames: 17
Frame Time: 0.008333
-2.077858 16.744739 -0.338802 9.200647 58.645042 30.498289 -7.074245 1.074392 3.636973 -2.636843 1.440087 -2.444502 -7.125106 1.380262 0.183721 8.084676 -0.458742 1.753824 -4.015337 -0.392745 2.188490 0.000000 0.000000 0.000000 -5.406881 6.219665 2.527111 -68.014411 19.439329 9.654914 -3.698094 -16.329884 -0.012659 -3.795250 5.676648 -0.189370 -0.052307 -0.102482 0.000000 0.000000 0.000000 0.000000 0.000000 0.000000 0.000000 14.406515 2.677743 -3.515592 96.737500 26.729071 54.625216 0.554907 78.118216 0.017834 1.553694 13.964077 0.199272 0.002386 -0.577719 -0.000000 0.000000 0.000000 0.000000 0.000000 0.000000 0.000000 
-1.965832 16.656642 -0.295593 9.969808 57.878217 30.720907 -7.608939 1.029329 4.125069 -2.755983 1.421183 -2.412134 -7.227241 1.362005 -0.043505 8.005427 -0.128361 1.884037 -4.110004 -0.399532 2.211484 0.000000 0.000000 0.000000 -5.698862 5.760189 2.603666 -67.578059 20.043931 11.121622 -3.670341 -16.927840 -0.012559 -3.945524 5.502414 -0.191389 -0.047958 -0.104929 0.000000 0.000000 0.000000 0.000000 0.000000 0.000000 0.000000 14.767539 3.036865 -3.491141 96.617224 26.605911 53.841342 0.534976 78.382597 0.016477 1.522625 14.300396 0.200758 -0.002897 -0.589119 -0.000000 0.000000 0.000000 0.000000 0.000000 0.000000 0.000000 
-1.858027 16.576082 -0.253185 10.664784 57.106161 30.831169 -8.086313 1.007122 4.679302 -2.864814 1.421025 -2.363886 -7.322249 1.362982 -0.263278 7.885318 0.246450 2.068168 -4.221012 -0.407403 2.244241 0.000000 0.000000 0.000000 -6.088708 5.265701 2.661899 -67.045177 20.381285 12.737807 -3.635636 -17.282667 -0.012276 -4.034753 5.300862 -0.189008 -0.043352 -0.106497 0.000000 0.000000 0.000000 0.000000 0.000000 0.000000 0.000000 15.161134 3.404835 -3.468667 96.402770 26.449979 52.897500 0.525821 78.394881 0.014642 1.456773 14.654471 0.197439 -0.008034 -0.597361 0.000000 0.000000 0.000000 0.000000 0.000000 0.000000 0.000000 
-1.753719 16.505449 -0.211660 11.278891 56.333916 30.828034 -8.499238 1.009723 5.290324 -2.961516 1.441239 -2.298127 -7.404995 1.384898 -0.462065 7.728022 0.648447 2.302046 -4.345804 -0.416076 2.285553 0.000000 0.000000 0.000000 -6.554638 4.758498 2.699165 -66.447528 20.393392 14.462467 -3.594972 -17.340049 -0.011794 -4.053440 5.090903 -0.182720 -0.038696 -0.106875 0.000000 0.000000 0.000000 0.000000 0.000000 0.000000 0.000000 15.576624 3.758837 -3.451260 96.090822 26.256700 51.799887 0.527369 78.137920 0.012209 1.321104 15.017108 0.184118 -0.012083 -0.601835 -0.000000 0.000000 0.000000 0.000000 0.000000 0.000000 0.000000 
-1.652021 16.446588 -0.171007 11.806274 55.568169 30.712512 -8.840275 1.037209 5.944746 -3.043926 1.481780 -2.214290 -7.470590 1.427759 -0.627865 7.539519 1.059620 2.578740 -4.480621 -0.425184 2.333831 0.000000 0.000000 0.000000 -7.072008 4.258562 2.714086 -65.825467 20.041426 16.241118 -3.549218 -17.066426 -0.011100 -3.992578 4.892355 -0.173327 -0.034182 -0.105744 0.000000 0.000000 0.000000 0.000000 0.000000 0.000000 0.000000 15.999131 4.077003 -3.441441 95.681745 26.021267 50.555823 0.538852 77.598550 0.009116 1.086016 15.374468 0.155597 -0.014263 -0.601974 -0.000000 0.000000 0.000000 0.000000 0.000000 0.000000 0.000000 
-1.551797 16.400737 -0.131152 12.238260 54.815922 30.487092 -9.100523 1.088127 6.624344 -3.109510 1.541304 -2.112800 -7.514817 1.490242 -0.749664 7.327483 1.460879 2.887885 -4.620785 -0.434297 2.386895 0.000000 0.000000 0.000000 -7.614214 3.788931 2.705627 -65.222460 19.300775 18.018019 -3.498604 -16.447796 -0.010171 -3.840486 4.723030 -0.161024 -0.029934 -0.102788 0.000000 0.000000 0.000000 0.000000 0.000000 0.000000 0.000000 16.410783 4.338520 -3.441535 95.181905 25.739991 49.174916 0.558972 76.766972 0.005395 0.731823 15.707656 0.107975 -0.014062 -0.597272 -0.000000 0.000000 0.000000 0.000000 0.000000 0.000000 0.000000 
-1.451919 16.368416 -0.091941 12.565488 54.083464 30.155105 -9.271330 1.159760 7.307984 -3.155688 1.617522 -1.995036 -7.534590 1.570041 -0.818339 7.101390 1.833251 3.216212 -4.760995 -0.442961 2.442109 0.000000 0.000000 0.000000 -8.155490 3.375689 2.672662 -64.680752 18.161362 19.731122 -3.443142 -15.489071 -0.008985 -3.582606 4.597506 -0.146309 -0.025993 -0.097730 0.000000 0.000000 0.000000 0.000000 0.000000 0.000000 0.000000 16.793043 4.525422 -3.453381 94.603316 25.412070 47.669096 0.586112 75.637242 0.001192 0.252178 15.993761 0.039355 -0.011311 -0.587348 0.000000 0.000000 0.000000 0.000000 0.000000 0.000000 0.000000 
-1.351320 16.349492 -0.053038 12.778356 53.375354 29.722754 -9.344775 1.248444 7.971153 -3.180124 1.707503 -1.864614 -7.529135 1.664092 -0.831272 6.873020 2.162331 3.553048 -4.895713 -0.450797 2.497901 0.000000 0.000000 0.000000 -8.678092 3.026221 2.614217 -64.235129 16.654511 21.286804 -3.383517 -14.226726 -0.007551 -3.198465 4.527472 -0.128481 -0.022287 -0.090479 0.000000 0.000000 0.000000 0.000000 0.000000 0.000000 0.000000 17.130247 4.626174 -3.476219 93.960941 25.036201 46.046304 0.618575 74.206540 -0.003246 -0.342619 16.207170 -0.048769 -0.006271 -0.572026 -0.000000 0.000000 0.000000 0.000000 0.000000 0.000000 0.000000 
-1.249174 16.343186 -0.013969 12.872537 52.694033 29.201701 -9.319817 1.347969 8.592646 -3.181812 1.806098 -1.721390 -7.497130 1.767316 -0.773660 6.655328 2.429509 3.871466 -5.019479 -0.457275 2.548037 0.000000 0.000000 0.000000 -9.148713 2.826841 2.526423 -63.912444 14.724182 22.700840 -3.316788 -12.666415 -0.005876 -2.661930 4.507356 -0.106239 -0.018582 -0.080810 -0.000000 0.000000 0.000000 0.000000 0.000000 0.000000 0.000000 17.410767 4.629247 -3.515159 93.278896 24.628700 44.329217 0.655436 72.476105 -0.007557 -1.028226 16.323156 -0.151895 0.000670 -0.551248 0.000000 0.000000 0.000000 0.000000 0.000000 0.000000 0.000000 
-1.144869 16.348318 0.026021 12.850619 52.040781 28.608362 -9.197608 1.453193 9.150153 -3.160578 1.909158 -1.572770 -7.443169 1.875231 -0.658511 6.464481 2.634611 4.171213 -5.127131 -0.462265 2.594172 0.000000 0.000000 0.000000 -9.569564 2.735205 2.409543 -63.720619 12.488420 23.823325 -3.245185 -10.913479 -0.004055 -1.937369 4.537007 -0.077585 -0.014546 -0.069274 -0.000000 0.000000 0.000000 0.000000 0.000000 0.000000 0.000000 17.631377 4.539380 -3.563120 92.572706 24.187361 42.513894 0.695633 70.452014 -0.011419 -1.764919 16.318524 -0.261927 0.008592 -0.525421 0.000000 0.000000 0.000000 0.000000 0.000000 0.000000 0.000000 
-1.038282 16.363382 0.067780 12.724425 51.414959 27.964947 -8.988110 1.556884 9.628585 -3.118107 2.010347 -1.422566 -7.371432 1.981385 -0.489565 6.316443 2.777781 4.441229 -5.214260 -0.465553 2.634570 0.000000 0.000000 0.000000 -9.930006 2.769763 2.263180 -63.655941 9.991412 24.612971 -3.167639 -9.050425 -0.002203 -0.985540 4.594006 -0.039827 -0.009741 -0.056488 0.000000 0.000000 0.000000 0.000000 0.000000 0.000000 0.000000 17.795060 4.364111 -3.617565 91.861176 23.724019 40.605097 0.739183 68.145603 -0.014519 -2.506198 16.178080 -0.369265 0.016660 -0.495139 -0.000000 0.000000 0.000000 0.000000 0.000000 0.000000 0.000000 
-0.929614 16.386727 0.112221 12.512601 50.815396 27.297424 -8.706518 1.651131 10.018660 -3.057417 2.102310 -1.273891 -7.287492 2.078374 -0.271236 6.226046 2.862304 4.669706 -5.277710 -0.466996 2.667029 0.000000 0.000000 0.000000 -10.224656 2.954300 2.088207 -63.697985 7.273688 25.094126 -3.082293 -7.182546 -0.000481 0.221480 4.647250 0.009032 -0.003848 -0.043351 0.000000 0.000000 0.000000 0.000000 0.000000 0.000000 0.000000 17.911998 4.114838 -3.675672 91.160109 23.256630 38.608022 0.787037 65.573464 -0.016634 -3.207268 15.895983 -0.464110 0.024212 -0.461229 -0.000000 0.000000 0.000000 0.000000 0.000000 0.000000 0.000000 
-0.819139 16.416215 0.160940 12.280857 50.245316 26.685039 -8.393191 1.723375 10.293596 -2.986501 2.172861 -1.137408 -7.197117 2.153875 -0.023880 6.207805 2.905888 4.864667 -5.314765 -0.466724 2.695073 0.000000 0.000000 0.000000 -10.446012 3.224854 1.892143 -63.823243 4.486425 25.185935 -2.993057 -5.461680 0.000952 1.705497 4.648408 0.069483 0.003130 -0.031388 0.000000 0.000000 0.000000 0.000000 0.000000 0.000000 0.000000 17.994238 3.812369 -3.728885 90.484354 22.777998 36.502181 0.839641 62.761536 -0.017710 -3.825930 15.476427 -0.538360 0.030555 -0.424880 0.000000 0.000000 0.000000 0.000000 0.000000 0.000000 0.000000 
-0.708368 16.451899 0.212731 11.958356 49.692909 26.031130 -8.013454 1.778010 10.509532 -2.898931 2.225518 -1.006787 -7.107991 2.211306 0.239620 6.261515 2.927691 5.020823 -5.326740 -0.464767 2.717139 0.000000 0.000000 0.000000 -10.620721 3.586289 1.685161 -63.992846 1.660957 24.998166 -2.900573 -4.013352 0.001978 3.428350 4.556654 0.136624 0.010725 -0.021421 0.000000 0.000000 0.000000 0.000000 0.000000 0.000000 0.000000 18.054736 3.490142 -3.769151 89.815166 22.333300 34.290415 0.899410 59.734301 -0.017793 -4.345110 14.936100 -0.589214 0.035644 -0.387088 0.000000 0.000000 0.000000 0.000000 0.000000 0.000000 0.000000 
-0.597893 16.491644 0.269465 11.631641 49.162006 25.433837 -7.622633 1.803088 10.637609 -2.805687 2.248413 -0.895351 -7.023237 2.238679 0.491708 6.394031 2.955888 5.158233 -5.313997 -0.461526 2.739682 0.000000 0.000000 0.000000 -10.720696 3.925052 1.482103 -64.189693 -1.016988 24.406092 -2.817090 -2.964329 0.002622 5.346323 4.294923 0.200551 0.017919 -0.014815 -0.000000 0.000000 0.000000 0.000000 0.000000 0.000000 0.000000 18.105015 3.177124 -3.785528 89.158429 21.897593 31.925839 0.966405 56.533535 -0.017076 -4.749195 14.296025 -0.615268 0.039250 -0.349217 -0.000000 0.000000 0.000000 0.000000 0.000000 0.000000 0.000000 
-0.488494 16.534510 0.331628 11.327443 48.657585 24.915047 -7.240492 1.793088 10.686826 -2.711024 2.235677 -0.804679 -6.945439 2.230234 0.722841 6.600982 2.992426 5.275630 -5.281012 -0.457302 2.762341 0.000000 0.000000 0.000000 -10.731606 4.203063 1.293317 -64.391741 -3.478337 23.432290 -2.752171 -2.387712 0.003002 7.350908 3.805083 0.244467 0.023307 -0.011918 0.000000 0.000000 0.000000 0.000000 0.000000 0.000000 0.000000 18.161132 2.877971 -3.771787 88.504964 21.493330 29.413657 1.042053 53.190630 -0.015771 -5.061254 13.590198 -0.622219 0.041956 -0.312277 -0.000000 0.000000 0.000000 0.000000 0.000000 0.000000 0.000000 
-0.381182 16.579844 0.398963 11.058083 48.174077 24.480766 -6.879704 1.748469 10.668413 -2.617542 2.187493 -0.739661 -6.874755 2.185847 0.909424 6.871589 3.072699 5.392625 -5.230430 -0.452485 2.790482 0.000000 0.000000 0.000000 -10.635938 4.327331 1.133174 -64.588820 -5.607913 21.992356 -2.717186 -2.322297 0.003324 9.312586 3.024369 0.246675 0.025574 -0.012521 0.000000 0.000000 0.000000 0.000000 0.000000 0.000000 0.000000 18.218329 2.632051 -3.718985 87.837829 21.104988 26.694969 1.125328 49.758703 -0.014139 -5.296309 12.849696 -0.614468 0.043892 -0.277292 -0.000000 0.000000 0.000000 0.000000 0.000000 0.000000 0.000000 
